<svg width="20" height="16" viewBox="0 0 20 16" fill="none" xmlns="http://www.w3.org/2000/svg">
<path d="M9.99982 13.0624C11.0953 13.0685 12.1824 12.8702 13.2052 12.4778L13.2906 12.4451L13.229 12.3774L12.0783 11.1118L12.0428 11.0728L11.9984 11.1012C11.2652 11.5692 10.39 11.763 9.52776 11.6482C8.66548 11.5334 7.87153 11.1175 7.28626 10.4739C6.70099 9.83034 6.36207 9.00059 6.32943 8.13131C6.29678 7.26203 6.5725 6.4092 7.10785 5.72355L7.14031 5.68197L7.10478 5.64299L5.69853 4.10002L5.66464 4.06284L5.62108 4.08799C3.44316 5.34567 2.26675 7.27935 1.89798 7.97051L1.88211 8.00024L1.89823 8.02983C2.38255 8.91888 2.9933 9.73295 3.7114 10.4466L3.71147 10.4467C5.46195 12.1814 7.57838 13.0624 9.99982 13.0624ZM9.99982 13.0624C9.99976 13.0624 9.9997 13.0624 9.99965 13.0624L9.99999 12.9999V13.0624C9.99993 13.0624 9.99988 13.0624 9.99982 13.0624ZM13.732 7.64759L13.6698 7.65341C13.6837 7.80194 13.638 7.9499 13.5428 8.06475C13.4478 8.17932 13.3113 8.25158 13.1632 8.26573C13.1465 8.26667 13.1297 8.26665 13.113 8.26566L13.113 8.26554L13.1091 8.26556C12.9685 8.26616 12.8328 8.21409 12.7287 8.11961C12.6246 8.02513 12.5596 7.89508 12.5466 7.75509L12.5466 7.75478C12.4927 7.20419 12.2625 6.68571 11.8903 6.27643C11.5181 5.86715 11.0237 5.58892 10.4807 5.48312L10.4805 5.48307C10.3339 5.4551 10.2044 5.37004 10.1206 5.24662C10.0367 5.12319 10.0053 4.97151 10.0333 4.82493C10.0612 4.67835 10.1463 4.54889 10.2697 4.46502C10.3931 4.38117 10.5448 4.34977 10.6913 4.37772C11.4746 4.5296 12.1878 4.93061 12.7246 5.52095C13.2614 6.11132 13.5929 6.8594 13.6698 7.65361L13.732 7.64759ZM13.732 7.64759C13.7475 7.81262 13.6967 7.97703 13.5909 8.10464C13.4851 8.23225 13.333 8.31261 13.168 8.32806C13.1484 8.3292 13.1289 8.3292 13.1094 8.32806M13.732 7.64759C13.6539 6.83996 13.3167 6.07925 12.7708 5.47891C12.225 4.87856 11.4997 4.47077 10.7031 4.31634L13.1094 8.32806M13.1094 8.32806C12.9532 8.32873 12.8024 8.27087 12.6867 8.16589M13.1094 8.32806L12.6867 8.16589M10.0001 2.93743C9.48997 2.93681 8.98068 2.97811 8.47735 3.06091L8.47661 3.06104C8.40344 3.07398 8.32842 3.0723 8.25591 3.05608C8.18339 3.03987 8.11481 3.00944 8.05411 2.96657C7.99342 2.9237 7.94183 2.86923 7.90231 2.8063C7.86278 2.74337 7.83612 2.67324 7.82386 2.59995C7.8116 2.52666 7.81398 2.45167 7.83087 2.37931C7.84776 2.30695 7.87881 2.23865 7.92225 2.17835C7.96568 2.11806 8.02063 2.06697 8.08392 2.02804C8.14721 1.9891 8.21758 1.96309 8.29098 1.95151L8.29142 1.95144C8.85613 1.8582 9.42756 1.8117 9.99991 1.81243H9.99999C12.7081 1.81243 15.1681 2.84155 17.1167 4.79022C18.5803 6.25383 19.2383 7.7142 19.2639 7.77212L19.264 7.7722C19.296 7.84414 19.3125 7.92199 19.3125 8.00071C19.3125 8.06608 19.3011 8.13084 19.2789 8.19212H19.2782L19.2617 8.22912C19.2305 8.29881 18.4435 10.0422 16.6708 11.6299L16.6701 11.6306C16.6153 11.6812 16.5509 11.7205 16.4808 11.746C16.4107 11.7716 16.3362 11.7829 16.2617 11.7794C16.1871 11.7758 16.1141 11.7575 16.0467 11.7255C15.9793 11.6934 15.9189 11.6483 15.8692 11.5927C15.8194 11.5371 15.7812 11.4721 15.7568 11.4016C15.7324 11.3311 15.7222 11.2564 15.7269 11.182C15.7316 11.1075 15.7511 11.0347 15.7842 10.9678C15.8174 10.901 15.8635 10.8413 15.9198 10.7925L15.9198 10.7925L15.9207 10.7917C16.8002 10.0015 17.539 9.06764 18.1056 8.02988L18.122 7.99995L18.1056 7.97C17.6203 7.08014 17.0082 6.26551 16.2885 5.55165L16.2885 5.55161C14.538 3.81841 12.4215 2.93745 10.0001 2.93743ZM10.0001 2.93743L9.99999 2.99993M10.0001 2.93743C10 2.93743 10 2.93743 9.99999 2.93743V2.99993M9.99999 2.99993C9.49332 2.99931 8.98745 3.04034 8.48749 3.12259L16.2445 5.59602C14.5055 3.87415 12.4047 2.99993 9.99999 2.99993ZM12.6867 8.16589C12.571 8.06091 12.4988 7.91641 12.4844 7.76087L12.6867 8.16589ZM4.16574 0.746094L4.16573 0.746098L4.16624 0.746658L16.6655 14.4967L16.666 14.4972C16.7167 14.5517 16.7561 14.6157 16.7819 14.6855C16.8077 14.7553 16.8194 14.8296 16.8163 14.904C16.8132 14.9783 16.7953 15.0513 16.7638 15.1188C16.7322 15.1862 16.6876 15.2467 16.6326 15.2968C16.5775 15.3468 16.513 15.3854 16.4429 15.4104C16.3727 15.4354 16.2984 15.4462 16.224 15.4422C16.1497 15.4382 16.0769 15.4195 16.0099 15.3871C15.9428 15.3548 15.8829 15.3095 15.8335 15.2538L15.833 15.2532L14.1142 13.3618L14.0839 13.3285L14.0427 13.3467C12.7696 13.9088 11.392 14.1954 10.0003 14.1874H9.99999C7.29189 14.1874 4.83191 13.1583 2.88324 11.2104C1.41963 9.7468 0.761699 8.28721 0.736042 8.2293L0.736009 8.22923C0.704026 8.15729 0.6875 8.07944 0.6875 8.00071C0.6875 7.92198 0.704026 7.84413 0.736009 7.7722L0.736057 7.77209C0.788156 7.6543 2.00196 4.98391 4.82331 3.25242L4.88762 3.21295L4.83687 3.15711L3.33374 1.50321L3.33375 1.5032L3.33324 1.50266C3.28252 1.44817 3.24312 1.38417 3.21732 1.31435C3.19152 1.24452 3.17984 1.17027 3.18294 1.0959C3.18605 1.02153 3.20389 0.948518 3.23542 0.881091C3.26695 0.813664 3.31156 0.753167 3.36664 0.703105C3.42173 0.653043 3.48621 0.614412 3.55633 0.589452C3.62646 0.564492 3.70084 0.553698 3.77517 0.557697C3.8495 0.561696 3.92229 0.580407 3.98934 0.612747C4.05638 0.645087 4.11634 0.690412 4.16574 0.746094ZM0.678899 7.74681C0.643362 7.82674 0.625 7.91324 0.625 8.00071C0.625 8.08819 0.643362 8.17469 0.678899 8.25462V7.74681ZM7.9564 6.58758L7.90209 6.52783L7.85786 6.59538C7.54682 7.07039 7.40235 7.63526 7.44714 8.20128C7.49193 8.7673 7.72344 9.30241 8.10532 9.7226C8.48719 10.1428 8.99781 10.4242 9.55698 10.5228C10.1162 10.6213 10.6922 10.5313 11.1947 10.267L11.2662 10.2294L11.2119 10.1696L7.9564 6.58758Z" fill="#CDCFD7" stroke="#CDCFD7" stroke-width="0.125"/>
</svg>
